<svg width="34" height="34" fill="none" xmlns="http://www.w3.org/2000/svg"><path d="M17 2.833a14.167 14.167 0 100 28.334 14.167 14.167 0 000-28.334z" fill="#29B6F6"/><path d="M24.048 10.625l-2.654 13.547s-.114.62-.881.62c-.409 0-.619-.195-.619-.195l-5.747-4.769-2.812-1.417-3.61-.96s-.642-.185-.642-.717c0-.442.661-.654.661-.654l15.099-5.998s.461-.166.797-.165c.207 0 .443.088.443.354 0 .177-.035.354-.035.354z" fill="#fff"/><path d="M16.292 21.608l-2.427 2.39s-.106.081-.247.085a.35.35 0 01-.155-.03l.683-4.226 2.146 1.78z" fill="#B0BEC5"/><path d="M21.177 12.889a.354.354 0 00-.497-.066l-9.347 5.594s1.492 4.173 1.72 4.896c.227.723.41.74.41.74l.683-4.225 6.964-6.443a.353.353 0 00.067-.496z" fill="#CFD8DC"/></svg>