<svg width="34" height="34" fill="none" xmlns="http://www.w3.org/2000/svg"><path fill-rule="evenodd" clip-rule="evenodd" d="M3.448 30.673l1.908-6.966a13.417 13.417 0 01-1.795-6.722C3.564 9.572 9.597 3.542 17.01 3.542a13.364 13.364 0 019.513 3.942 13.363 13.363 0 013.935 9.512c-.002 7.412-6.036 13.444-13.448 13.444h-.006a13.42 13.42 0 01-6.426-1.637l-7.13 1.87z" fill="#fff"/><path fill-rule="evenodd" clip-rule="evenodd" d="M3.448 31.027a.353.353 0 01-.341-.447l1.869-6.825a13.798 13.798 0 01-1.769-6.77C3.21 9.378 9.402 3.189 17.01 3.189a13.718 13.718 0 019.763 4.046 13.715 13.715 0 014.04 9.762c-.003 7.608-6.196 13.798-13.803 13.798-2.259 0-4.494-.558-6.477-1.613l-6.995 1.834a.324.324 0 01-.09.012z" fill="#fff"/><path fill-rule="evenodd" clip-rule="evenodd" d="M17.01 3.542a13.364 13.364 0 019.513 3.942 13.363 13.363 0 013.935 9.512c-.002 7.413-6.036 13.444-13.448 13.444h-.006c-2.25 0-4.462-.565-6.427-1.637l-7.129 1.87 1.908-6.966a13.416 13.416 0 01-1.795-6.722C3.564 9.572 9.596 3.542 17.01 3.542zm0-.709c-7.803 0-14.154 6.348-14.158 14.152 0 2.385.602 4.735 1.744 6.816l-1.831 6.686a.707.707 0 00.863.872l6.862-1.8a14.186 14.186 0 006.514 1.59c7.809 0 14.16-6.349 14.163-14.152a14.065 14.065 0 00-4.142-10.013 14.074 14.074 0 00-10.015-4.15z" fill="#CFD8DC"/><path fill-rule="evenodd" clip-rule="evenodd" d="M24.916 9.09a11.102 11.102 0 00-7.902-3.277c-6.166 0-11.18 5.012-11.183 11.173 0 2.111.59 4.167 1.71 5.947l.266.423-1.13 4.123 4.23-1.11.41.243a11.156 11.156 0 005.689 1.558h.004c6.161 0 11.175-5.013 11.177-11.175a11.11 11.11 0 00-3.27-7.906z" fill="#40C351"/><path fill-rule="evenodd" clip-rule="evenodd" d="M13.648 11.365c-.251-.56-.516-.57-.756-.58-.197-.01-.42-.008-.644-.008-.224 0-.588.084-.896.42-.308.337-1.177 1.15-1.177 2.803s1.204 3.25 1.372 3.475c.168.223 2.325 3.725 5.74 5.072 2.839 1.12 3.417.897 4.033.84.616-.055 1.988-.812 2.268-1.596.28-.785.28-1.457.197-1.598-.085-.14-.309-.224-.644-.392-.336-.169-1.989-.981-2.297-1.093-.308-.112-.532-.168-.756.168-.224.336-.868 1.093-1.064 1.317-.196.225-.393.253-.728.084-.336-.168-1.418-.522-2.703-1.667-.998-.89-1.673-1.99-1.869-2.327-.196-.336-.021-.518.147-.686.151-.15.336-.392.505-.588.168-.196.224-.337.335-.56.112-.225.056-.421-.028-.589-.083-.169-.736-1.83-1.035-2.495z" fill="#fff"/></svg>