<svg width="588" height="287" xmlns="http://www.w3.org/2000/svg"><path fill="none" d="M-1-1h590v289H-1z"/><g fill="#0A69F0"><path d="M292.226 200.802v1.729h.632l.85-1.136c.468-.627.868-1.136.893-1.136.025 0 .044.509.044 1.136v1.136h.642v-3.457h-.33l-.336.005-.84 1.13c-.46.623-.854 1.132-.874 1.137-.025 0-.04-.514-.04-1.136v-1.136h-.641v1.728zm3.664-1.565c-.148.153-.158.188-.158.519v.355h.642v-.346h1.728v.692h-1.037v.691h1.037v.692h-1.728v-.346h-.642v.36c0 .346.01.37.163.519l.163.158h2.37l.158-.163.158-.163v-1.077l-.158-.163-.158-.163.158-.162.158-.163v-1.087l-.163-.158-.163-.158h-2.37l-.158.163zm3.605 0l-.158.163v2.815l.163.158.163.158h2.37l.158-.163c.148-.153.158-.188.158-.519v-.355h-.642v.346h-1.728v-2.075h1.728v.346h.642v-.36c0-.346-.01-.37-.163-.519l-.163-.158h-2.37l-.158.163z"/><path d="M293.016 200.042l.005.933.118-.148c.119-.143.124-.178.124-.82 0-.651-.005-.671-.124-.785l-.123-.113v.933zm2.41.815l-.015 1.748-.41.025-.41.024.143.139c.134.128.163.138.534.123l.39-.015.015-.261c.01-.173-.01-.292-.06-.366-.108-.148-.108-.746-.005-.85.06-.054.074-.197.074-.626v-.558l.144.138c.128.123.163.133.528.118l.39-.015.015-.162.015-.159h1.18v-.296h-.716c-.672 0-.716.005-.716.094 0 .232-.04.252-.494.252-.35 0-.44-.015-.464-.08-.05-.123-.035-.656.02-.755.034-.069.024-.113-.05-.177-.098-.09-.098-.07-.108 1.659zm7.071-1.082v.435h-.81l.144.148c.143.148.158.153.543.138l.395-.015.01-.395c.015-.375.005-.405-.134-.567l-.143-.173-.005.43zm-3.605.198c0 .533-.005.558-.133.691l-.133.138.133.134.128.133.129-.118c.118-.114.123-.139.123-.702 0-.454-.02-.612-.079-.706-.044-.069-.099-.123-.123-.123-.025 0-.045.247-.045.553zm1.235.829v.939h.247v-1.58h1.185v-.297h-1.432v.938zm-6.435.84l-.73.988h-.806l.144.148c.133.138.163.148.528.148h.385l.583-.78c.321-.425.612-.825.642-.884.064-.119.084-.608.025-.608-.025 0-.37.445-.77.988zm5.2.064v.558l-.187.183-.188.183h-1.279l-1.284.005.163.143.158.148h2.489l.207-.203.208-.202-.025-.578c-.03-.548-.094-.795-.217-.795-.025 0-.045.252-.045.558zm-1.703-.311c.128.133.172.148.454.148h.311v-.296h-.909l.144.148z"/><path d="M296.522 201.642c0 .07.034.099.109.099.098 0 .103-.005.014-.099a.471.471 0 00-.108-.099c-.005 0-.015.045-.015.099zm5.975.262c0 .35-.005.365-.187.543l-.188.183h-1.28l-1.283.005.163.143.158.148h2.489l.212-.207.213-.208v-.375c0-.331-.015-.39-.114-.484a.484.484 0 00-.148-.109c-.02 0-.035.163-.035.36z"/><g stroke="null"><path d="M458.566 1148.595v-350h128l172 230c95 127 176 230 181 230s9-103 9-230v-230h130v700h-67l-68-1-170-229c-93-126-173-229-177-230-5 0-8 104-8 230v230h-130v-350zm742 317c-30-31-32-38-32-105v-72h130v70h350v-140h-210v-140h210v-140h-350v70h-130v-73c0-70 2-75 33-105l33-32h480l32 33 32 33v218l-32 33-32 33 32 33 32 33v220l-33 32-33 32h-480l-32-33zm730 0l-32-33v-570l33-32 33-32h480l32 33c30 31 32 38 32 105v72h-130v-70h-350v420h350v-70h130v73c0 70-2 75-33 105l-33 32h-480l-32-33z" transform="matrix(.27115 0 0 -.35747 -120.543 539.278)"/><path d="M618.566 1302.595l1-189 24 30c24 29 25 36 25 166 0 132-1 136-25 159l-25 23v-189zm488-165l-3-354-83-5-83-5 29-28c27-26 33-28 108-25l79 3 3 53c2 35-2 59-12 74-22 30-22 151-1 172 12 11 15 40 15 127v113l29-28c26-25 33-27 107-24l79 3 3 33 3 32h239v60h-145c-136 0-145-1-145-19 0-47-8-51-100-51-71 0-89 3-94 16-10 25-7 133 4 153 7 14 5 23-10 36-20 18-20 14-22-336zm1432 219v-88h-164l29-30c29-30 32-31 110-28l80 3 2 80c3 76 1 82-27 115l-29 35-1-87zm-730-40c0-108-1-113-27-140l-27-28 27-27 26-27 26 24c24 23 25 28 25 142 0 92-4 124-16 143-9 14-20 25-25 25s-9-50-9-112zm250-168v-190h50v320h240v60h-290v-190zm-1303-170l-148-200h-163l29-30c27-28 33-30 107-30h78l118 158c65 86 124 167 130 179 13 24 17 123 5 123-5 0-75-90-156-200zm1053-13v-113l-38-37-38-37h-259l-260-1 33-29 32-30h504l42 41 42 41-5 117c-6 111-19 161-44 161-5 0-9-51-9-113zm-345 63c26-27 35-30 92-30h63v60h-184l29-30z" transform="matrix(.27115 0 0 -.35747 -120.543 539.278)"/><path d="M1328.566 978.595c0-14 7-20 22-20 20 0 21 1 3 20-10 11-20 20-22 20-1 0-3-9-3-20zm1210-53c0-71-1-74-38-110l-38-37h-259l-260-1 33-29 32-30h504l43 42 43 42v76c0 67-3 79-23 98-13 12-26 22-30 22s-7-33-7-73z" transform="matrix(.27115 0 0 -.35747 -120.543 539.278)"/></g></g></svg>