<svg xmlns="http://www.w3.org/2000/svg" viewBox="0 0 512 512"><path fill="#cee8fa" d="M103.041 413.962h216.628v83.518H103.041z"/><g fill="#2d527c"><path d="M319.667 512H103.042c-8.018 0-14.517-6.499-14.517-14.517v-83.517c0-8.018 6.499-14.517 14.517-14.517h216.625c8.018 0 14.517 6.499 14.517 14.517v83.517c0 8.018-6.499 14.517-14.517 14.517zm-202.108-29.035h187.59v-54.482h-187.59v54.482zm-24.846-118.21c-6.151 0-11.862-3.94-13.829-10.114L42.039 238.984c-7.513-23.546 5.525-48.83 29.068-56.359 23.569-7.524 48.851 5.519 56.371 29.071l14.426 44.89c2.452 7.633-1.746 15.811-9.38 18.263s-15.811-1.745-18.263-9.38l-14.433-44.917c-2.658-8.326-11.573-12.919-19.881-10.27-8.297 2.654-12.894 11.573-10.243 19.881l36.848 115.662c2.433 7.639-1.786 15.805-9.426 18.24a14.51 14.51 0 01-4.413.69zm214.151-196.052h-42.96V44.844C263.904 20.117 243.787 0 219.06 0c-20.488 0-37.799 13.816-43.135 32.618a44.586 44.586 0 00-17.517-3.565c-24.727 0-44.844 20.117-44.844 44.844v80.674c0 8.018 6.499 14.517 14.517 14.517s14.517-6.499 14.517-14.517V73.896c0-8.716 7.092-15.809 15.809-15.809s15.809 7.092 15.809 15.809v112.632c0 8.018 6.499 14.517 14.517 14.517s14.517-6.499 14.517-14.517V44.844c0-8.716 7.092-15.809 15.809-15.809s15.809 7.092 15.809 15.809V183.22c0 8.018 6.499 14.517 14.517 14.517h57.477c9.146 0 16.586 7.44 16.586 16.586v135.911c0 8.018 6.499 14.517 14.517 14.517s14.517-6.499 14.517-14.517v-135.91c.002-25.156-20.463-45.621-45.618-45.621zm104.584-22.458c-4.692 0-9.298-2.271-12.096-6.47-4.445-6.672-2.639-15.686 4.033-20.131l28-18.655-28-18.655c-6.672-4.445-8.478-13.459-4.033-20.131 4.447-6.672 13.459-8.48 20.131-4.033l46.135 30.736a14.516 14.516 0 010 24.162l-46.135 30.74a14.446 14.446 0 01-8.035 2.437z"/><path d="M354.254 146.245c-2.766 0-5.562-.788-8.035-2.437l-46.133-30.736a14.516 14.516 0 010-24.162l46.133-30.736c6.674-4.444 15.686-2.638 20.131 4.033 4.445 6.672 2.639 15.685-4.033 20.131l-28 18.655 28 18.655c6.672 4.447 8.478 13.459 4.033 20.131a14.513 14.513 0 01-12.096 6.466z"/></g></svg>